# xmcd
#
# Track frame offsets: 
#        150
#        16835
#        36362
#        56913
#        79045
#        91808
#        114568
#        132968
#        154430
#        165174
#        183979
#        201730
#        217226
#
# Disc length: 3195 seconds
#
# Revision: 0
# Processed by: cddbd v1.5.2PL0 Copyright (c) Steve Scherf et al.
# Submitted via: ExactAudioCopyFreeDBPlugin 1.0
#
DISCID=b60c790d
DTITLE=Ks. Robert - O Gwiazdo Betejemska
DYEAR=2013
DGENRE=Vocal
TTITLE0=Cieszmy się i pod niebiosy
TTITLE1=O Gwiazdo Betlejemska
TTITLE2=Mędrcy świata
TTITLE3=Cicha noc
TTITLE4=Pójdźmy wszyscy do stajenki
TTITLE5=Gdy śliczna Panna
TTITLE6=Gdy się Chrystus rodzi
TTITLE7=Lulajże Jezuniu
TTITLE8=Przybieżeli do Betlejem
TTITLE9=Jezus Malusieńki
TTITLE10=Wśród nocnej ciszy
TTITLE11=Bóg się rodzi
TTITLE12=Kołysanka miłosierna
EXTD=
EXTT0=
EXTT1=
EXTT2=
EXTT3=
EXTT4=
EXTT5=
EXTT6=
EXTT7=
EXTT8=
EXTT9=
EXTT10=
EXTT11=
EXTT12=
PLAYORDER=
